<svg xmlns="http://www.w3.org/2000/svg" width="16" height="16" fill="currentColor" class="bi bi-spotify" viewBox="0 0 16 16">
  <path d="
  M8 0
  a 8 8 0 1 0 0 16
  A 8 8 0 0 0 8 0 Z

  m 3.669 11.538
  a .498 .498 0 0 1 -.686 .165
  c -1.879 -1.147 -4.243 -1.407 -7.028 -.77
  a .499 .499 0 0 1 -.222 -.973
  c 3.048 -.696 5.662 -.397 7.77 .892
  a .5.5 0 0 1 .166 .686
  Z

  m .979 -2.178
  a .624 .624 0 0 1 -.858 .205
  C 9.64 8.244 6.362 7.861 6 8.25
  a .625 .625 0 0 1 -.362 -1.194
  C 6.361 6.582 9.973 6.747 12.442 8.502
  a .624 .624 0 0 1 .206 .858
  Z

  m .084 -2.268
  C 10.154 5.56 5.9 5.419 5.6 5.8
  a .748 .748 0 1 1 -.434 -1.432
  C 5.829 3.877 10.527 4.042 13.496 5.804
  a .747 .747 0 1 1 -.764 1.288
  Z

  "/>

  <circle cx="11.669" cy="11.538" r="0.1" fill="red"/>
  <circle cx="10.983" cy="11.703" r="0.1" fill="red"/>
  <circle cx="3.955" cy="10.933" r="0.1" fill="red"/>
  <circle cx="3.733" cy="9.96" r="0.1" fill="red"/>
  <circle cx="11.503" cy="10.852" r="0.1" fill="red"/>

  <circle cx="5.6" cy="5.8" r="0.1" fill="blue"/>

  <circle cx="12.648" cy="9.36" r="0.1" fill="red"/>
  <circle cx="11.79" cy="9.565" r="0.1" fill="red"/>
  <circle cx="9.64" cy="8.244" r="0.1" fill="green"/>
  <circle cx="6.362" cy="7.861" r="0.1" fill="green"/>
  <circle cx="3.818" cy="8.633" r="0.1" fill="red"/>

  <circle cx="3.456" cy="7.439" r="0.1" fill="red"/>
  <circle cx="6.361" cy="6.582" r="0.1" fill="green"/>
  <circle cx="9.973" cy="6.747" r="0.1" fill="green"/>
  <circle cx="12.442" cy="8.502" r="0.1" fill="red"/>

  <circle cx="6" cy="8.25" r="0.1" fill="blue"/>

  <circle cx="12.732" cy="7.092" r="0.1" fill="red"/>
  <circle cx="5.6" cy="5.8" r="0.1" fill="blue"/>

  <circle cx="3.438" cy="6.166" r="0.1" fill="red"/>
  <circle cx="3.004" cy="4.734" r="0.1" fill="red"/>
  <circle cx="5.829" cy="3.877" r="0.1" fill="green"/>
  <circle cx="10.527" cy="4.042" r="0.1" fill="green"/>
  <circle cx="13.496" cy="5.804" r="0.1" fill="red"/>
  <!-- A rx ry x-axis-rotation (degrees) large-arc-flag (bool) sweep-flag (bool) x y -->
  <!-- a rx ry x-axis-rotation (degrees) large-arc-flag (bool) sweep-flag (bool) dx dy -->

  <!-- C x1 y1 x2 y2 x y -->
  <!-- c dx1 dy1 dx2 dy2 dx dy -->

<!--  <path d="-->
<!--  M8 0-->
<!--  a 8 8 0 1 0 0 16-->
<!--  A 8 8 0 0 0 8 0 Z-->
<!--  m 3.669 11.538-->
<!--  a .498 .498 0 0 1 -.686 .165-->
<!--  c -1.879 -1.147 -4.243 -1.407 -7.028 -.77-->
<!--  a .499 .499 0 0 1 -.222 -.973-->
<!--  c 3.048 -.696 5.662 -.397 7.77 .892-->
<!--  a .5.5 0 0 1 .166 .686 Z-->
<!--  m .979 -2.178-->
<!--  a .624 .624 0 0 1 -.858 .205-->
<!--  c -2.15 -1.321 -5.428 -1.704 -7.972 -.932-->
<!--  a .625 .625 0 0 1 -.362 -1.194-->
<!--  c 2.905 -.881 6.517 -.454 8.986 1.063-->
<!--  a .624 .624 0 0 1 .206 .858 Z-->
<!--  m .084 -2.268-->
<!--  C 10.154 5.56 5.9 5.419 3.438 6.166-->
<!--  a .748 .748 0 1 1 -.434 -1.432-->
<!--  c 2.825 -.857 7.523 -.692 10.492 1.07-->
<!--  a .747 .747 0 1 1 -.764 1.288 Z-->
<!--  "/>-->
</svg>
